<?xml version="1.0" encoding="UTF-8" standalone="no"?>
<svg
   width="230.649994pt"
   height="112.959999pt"
   viewBox="0 0 230.649994 112.959999"
   version="1.2"
   id="svg118"
   xmlns="http://www.w3.org/2000/svg"
   xmlns:svg="http://www.w3.org/2000/svg">
  <defs
     id="defs5">
    <clipPath
       id="clip1">
      <path
         d="M 0 0 L 230.648438 0 L 230.648438 112.960938 L 0 112.960938 Z M 0 0 "
         id="path2" />
    </clipPath>
  </defs>
  <g
     id="surface3018">
    <g
       clip-path="url(#clip1)"
       clip-rule="nonzero"
       id="g9">
      <path
         style=" stroke:none;fill-rule:nonzero;fill:rgb(100%,100%,100%);fill-opacity:1;"
         d="M 0 0 L 230.648438 0 L 230.648438 112.960938 L 0 112.960938 Z M 0 0 "
         id="path7" />
    </g>
    <path
       style="fill-rule:nonzero;fill:rgb(84.312439%,84.312439%,84.312439%);fill-opacity:1;stroke-width:0.99628;stroke-linecap:butt;stroke-linejoin:miter;stroke:rgb(84.312439%,84.312439%,84.312439%);stroke-opacity:1;stroke-miterlimit:10;"
       d="M 108.535156 20.425781 L 34.371094 20.425781 C 32.171875 20.425781 30.386719 22.210938 30.386719 24.410156 L 30.386719 48.707031 C 30.386719 50.90625 28.601562 52.691406 26.402344 52.691406 L 20.421875 52.691406 L 20.421875 73.941406 L 26.402344 73.941406 C 28.601562 73.941406 30.386719 75.726562 30.386719 77.925781 L 30.386719 88.550781 C 30.386719 90.753906 32.171875 92.539062 34.371094 92.539062 L 104.9375 92.539062 L 112.863281 79.195312 C 113.988281 77.304688 113.117188 75.769531 110.914062 75.769531 L 108.921875 75.769531 C 106.722656 75.769531 104.9375 73.984375 104.9375 71.785156 L 104.9375 54.847656 C 104.9375 52.648438 106.722656 50.863281 108.921875 50.863281 L 118.496094 50.863281 Z M 108.535156 20.425781 "
       id="path11" />
    <path
       style="fill-rule:nonzero;fill:rgb(84.312439%,84.312439%,84.312439%);fill-opacity:1;stroke-width:0.99628;stroke-linecap:butt;stroke-linejoin:miter;stroke:rgb(84.312439%,84.312439%,84.312439%);stroke-opacity:1;stroke-miterlimit:10;"
       d="M 108.535156 20.425781 L 180.984375 20.425781 C 183.183594 20.425781 184.96875 22.210938 184.96875 24.410156 L 184.96875 46.878906 C 184.96875 49.078125 183.183594 50.863281 180.984375 50.863281 L 108.535156 50.863281 "
       id="path13" />
    <path
       style="fill-rule:nonzero;fill:rgb(84.312439%,84.312439%,84.312439%);fill-opacity:1;stroke-width:0.99628;stroke-linecap:butt;stroke-linejoin:miter;stroke:rgb(84.312439%,84.312439%,84.312439%);stroke-opacity:1;stroke-miterlimit:10;"
       d="M 104.9375 75.769531 L 180.984375 75.769531 C 183.183594 75.769531 184.96875 77.554688 184.96875 79.753906 L 184.96875 88.550781 C 184.96875 90.753906 183.183594 92.539062 180.984375 92.539062 L 104.9375 92.539062 "
       id="path15" />
    <path
       style=" stroke:none;fill-rule:nonzero;fill:rgb(0%,0%,0%);fill-opacity:1;"
       d="M 207.078125 39.0625 L 207.078125 38.59375 L 206.09375 38.59375 L 203.578125 35.109375 L 205.25 32.90625 C 205.359375 32.765625 205.375 32.75 205.71875 32.71875 C 205.953125 32.6875 206.015625 32.6875 206.296875 32.6875 L 206.578125 32.6875 L 206.578125 32.21875 C 206.171875 32.25 205.671875 32.25 205.25 32.25 C 204.859375 32.25 204.09375 32.25 203.734375 32.21875 L 203.734375 32.6875 C 203.90625 32.6875 204.296875 32.6875 204.65625 32.796875 C 204.640625 32.828125 204.59375 32.875 204.578125 32.90625 L 203.25 34.65625 L 201.828125 32.6875 L 202.65625 32.6875 L 202.65625 32.21875 C 202.25 32.25 201.296875 32.25 200.859375 32.25 C 200.453125 32.25 199.59375 32.25 199.234375 32.21875 L 199.234375 32.6875 L 200.21875 32.6875 L 202.421875 35.75 L 200.421875 38.390625 C 200.328125 38.515625 200.3125 38.53125 199.984375 38.5625 C 199.78125 38.578125 199.578125 38.59375 199.375 38.59375 L 199.09375 38.59375 L 199.09375 39.0625 C 199.5 39.03125 200 39.03125 200.421875 39.03125 C 200.8125 39.03125 201.578125 39.03125 201.9375 39.0625 L 201.9375 38.59375 C 201.765625 38.59375 201.375 38.59375 201.015625 38.484375 C 201.03125 38.46875 201.078125 38.40625 201.109375 38.375 L 202.75 36.1875 L 204.484375 38.59375 L 203.65625 38.59375 L 203.65625 39.0625 C 204.0625 39.03125 205.015625 39.03125 205.453125 39.03125 C 205.859375 39.03125 206.71875 39.03125 207.078125 39.0625 Z M 207.078125 39.0625 "
       id="path17" />
    <path
       style=" stroke:none;fill-rule:nonzero;fill:rgb(0%,0%,0%);fill-opacity:1;"
       d="M 207.21875 81.195312 L 207.21875 80.726562 L 206.078125 80.757812 C 205.6875 80.757812 205.125 80.757812 204.765625 80.726562 L 204.765625 81.195312 C 204.984375 81.195312 205.265625 81.195312 205.515625 81.304688 C 205.5 81.335938 205.5 81.367188 205.453125 81.414062 L 203.578125 84.164062 L 201.5625 81.195312 L 202.40625 81.195312 L 202.40625 80.726562 C 202 80.757812 201.03125 80.757812 200.578125 80.757812 C 200.1875 80.757812 199.28125 80.757812 198.9375 80.726562 L 198.9375 81.195312 L 199.921875 81.195312 L 202.40625 84.835938 L 202.40625 87.101562 L 201.328125 87.101562 L 201.328125 87.570312 C 201.6875 87.539062 202.65625 87.539062 203.078125 87.539062 C 203.5 87.539062 204.46875 87.539062 204.84375 87.570312 L 204.84375 87.101562 L 203.75 87.101562 L 203.75 84.835938 L 206.09375 81.398438 C 206.1875 81.257812 206.265625 81.257812 206.484375 81.226562 C 206.65625 81.210938 206.828125 81.195312 207 81.195312 Z M 207.21875 81.195312 "
       id="path19" />
    <path
       style="fill:none;stroke-width:0.49814;stroke-linecap:butt;stroke-linejoin:miter;stroke:rgb(0%,0%,0%);stroke-opacity:1;stroke-miterlimit:10;"
       d="M 34.371094 63.316406 L 20.421875 63.316406 "
       id="path21" />
    <path
       style="fill:none;stroke-width:0.49814;stroke-linecap:butt;stroke-linejoin:miter;stroke:rgb(0%,0%,0%);stroke-opacity:1;stroke-miterlimit:10;"
       d="M 108.535156 35.671875 L 67.660156 35.671875 L 67.660156 56.675781 M 67.660156 69.957031 L 67.660156 84.152344 L 104.9375 84.152344 "
       id="path23" />
    <path
       style="fill:none;stroke-width:0.49814;stroke-linecap:butt;stroke-linejoin:miter;stroke:rgb(0%,0%,0%);stroke-opacity:1;stroke-miterlimit:10;"
       d="M 118.496094 35.671875 L 108.535156 35.671875 "
       id="path25" />
    <path
       style="fill:none;stroke-width:0.49814;stroke-linecap:butt;stroke-linejoin:miter;stroke:rgb(0%,0%,0%);stroke-opacity:1;stroke-miterlimit:10;"
       d="M 130.949219 42.535156 L 122.730469 42.535156 L 122.730469 31.4375 M 122.730469 39.90625 L 122.730469 28.8125 L 130.949219 28.8125 "
       id="path27" />
    <path
       style="fill:none;stroke-width:0.49814;stroke-linecap:butt;stroke-linejoin:miter;stroke:rgb(0%,0%,0%);stroke-opacity:1;stroke-miterlimit:10;"
       d="M 114.898438 84.152344 L 104.9375 84.152344 "
       id="path29" />
    <path
       style="fill-rule:nonzero;fill:rgb(92.155457%,92.155457%,92.155457%);fill-opacity:1;stroke-width:0.49814;stroke-linecap:butt;stroke-linejoin:miter;stroke:rgb(0%,0%,0%);stroke-opacity:1;stroke-miterlimit:10;"
       d="M 96.71875 56.925781 L 38.605469 56.925781 C 36.402344 56.925781 34.621094 58.710938 34.621094 60.910156 L 34.621094 65.722656 C 34.621094 67.921875 36.402344 69.707031 38.605469 69.707031 L 96.71875 69.707031 C 98.917969 69.707031 100.703125 67.921875 100.703125 65.722656 L 100.703125 60.910156 C 100.703125 58.710938 98.917969 56.925781 96.71875 56.925781 Z M 96.71875 56.925781 "
       id="path31" />
    <path
       style=" stroke:none;fill-rule:nonzero;fill:rgb(0%,0%,0%);fill-opacity:1;"
       d="M 43.433594 61.632812 C 43.433594 61.460938 43.324219 61.148438 42.933594 61.148438 C 42.730469 61.148438 42.292969 61.210938 41.871094 61.617188 C 41.449219 61.289062 41.042969 61.257812 40.824219 61.257812 C 39.886719 61.257812 39.199219 61.945312 39.199219 62.710938 C 39.199219 63.148438 39.417969 63.523438 39.667969 63.742188 C 39.542969 63.882812 39.355469 64.210938 39.355469 64.570312 C 39.355469 64.882812 39.496094 65.257812 39.808594 65.460938 C 39.199219 65.617188 38.886719 66.054688 38.886719 66.445312 C 38.886719 67.164062 39.871094 67.710938 41.089844 67.710938 C 42.261719 67.710938 43.292969 67.210938 43.292969 66.429688 C 43.292969 66.085938 43.167969 65.570312 42.652344 65.289062 C 42.121094 65.023438 41.542969 65.023438 40.933594 65.023438 C 40.683594 65.023438 40.261719 65.023438 40.183594 65.007812 C 39.871094 64.960938 39.667969 64.664062 39.667969 64.335938 C 39.667969 64.304688 39.667969 64.070312 39.824219 63.867188 C 40.214844 64.148438 40.636719 64.179688 40.824219 64.179688 C 41.746094 64.179688 42.433594 63.492188 42.433594 62.726562 C 42.433594 62.351562 42.277344 61.992188 42.027344 61.757812 C 42.386719 61.414062 42.746094 61.367188 42.917969 61.367188 C 42.917969 61.367188 42.996094 61.367188 43.027344 61.382812 C 42.917969 61.414062 42.855469 61.523438 42.855469 61.648438 C 42.855469 61.820312 42.996094 61.929688 43.152344 61.929688 C 43.246094 61.929688 43.433594 61.867188 43.433594 61.632812 Z M 41.683594 62.710938 C 41.683594 62.976562 41.683594 63.304688 41.527344 63.554688 C 41.449219 63.664062 41.214844 63.945312 40.824219 63.945312 C 39.949219 63.945312 39.949219 62.945312 39.949219 62.726562 C 39.949219 62.460938 39.964844 62.132812 40.105469 61.882812 C 40.183594 61.773438 40.417969 61.492188 40.824219 61.492188 C 41.683594 61.492188 41.683594 62.476562 41.683594 62.710938 Z M 42.777344 66.445312 C 42.777344 66.992188 42.074219 67.492188 41.105469 67.492188 C 40.089844 67.492188 39.402344 66.976562 39.402344 66.445312 C 39.402344 65.992188 39.777344 65.617188 40.214844 65.601562 L 40.808594 65.601562 C 41.667969 65.601562 42.777344 65.601562 42.777344 66.445312 Z M 42.777344 66.445312 "
       id="path33" />
    <path
       style=" stroke:none;fill-rule:nonzero;fill:rgb(0%,0%,0%);fill-opacity:1;"
       d="M 47.757812 65.664062 L 47.757812 65.351562 L 47.445312 65.351562 C 46.539062 65.351562 46.523438 65.242188 46.523438 64.882812 L 46.523438 59.289062 C 46.523438 59.039062 46.523438 59.023438 46.289062 59.023438 C 45.664062 59.664062 44.789062 59.664062 44.476562 59.664062 L 44.476562 59.976562 C 44.679688 59.976562 45.257812 59.976562 45.773438 59.710938 L 45.773438 64.882812 C 45.773438 65.242188 45.742188 65.351562 44.851562 65.351562 L 44.539062 65.351562 L 44.539062 65.664062 C 44.882812 65.632812 45.742188 65.632812 46.148438 65.632812 C 46.539062 65.632812 47.414062 65.632812 47.757812 65.664062 Z M 47.757812 65.664062 "
       id="path35" />
    <path
       style=" stroke:none;fill-rule:nonzero;fill:rgb(0%,0%,0%);fill-opacity:1;"
       d="M 50.597656 65.648438 C 50.597656 65.023438 50.347656 64.601562 49.957031 64.601562 C 49.597656 64.601562 49.425781 64.882812 49.425781 65.132812 C 49.425781 65.398438 49.597656 65.664062 49.957031 65.664062 C 50.097656 65.664062 50.238281 65.601562 50.347656 65.507812 C 50.363281 66.289062 50.097656 66.898438 49.660156 67.367188 C 49.597656 67.429688 49.582031 67.445312 49.582031 67.476562 C 49.582031 67.554688 49.628906 67.585938 49.675781 67.585938 C 49.800781 67.585938 50.597656 66.804688 50.597656 65.648438 Z M 50.597656 65.648438 "
       id="path37" />
    <path
       style=" stroke:none;fill-rule:nonzero;fill:rgb(0%,0%,0%);fill-opacity:1;"
       d="M 59.484375 61.632812 C 59.484375 61.460938 59.375 61.148438 58.984375 61.148438 C 58.78125 61.148438 58.34375 61.210938 57.921875 61.617188 C 57.5 61.289062 57.09375 61.257812 56.875 61.257812 C 55.9375 61.257812 55.25 61.945312 55.25 62.710938 C 55.25 63.148438 55.46875 63.523438 55.71875 63.742188 C 55.59375 63.882812 55.40625 64.210938 55.40625 64.570312 C 55.40625 64.882812 55.546875 65.257812 55.859375 65.460938 C 55.25 65.617188 54.9375 66.054688 54.9375 66.445312 C 54.9375 67.164062 55.921875 67.710938 57.140625 67.710938 C 58.3125 67.710938 59.34375 67.210938 59.34375 66.429688 C 59.34375 66.085938 59.21875 65.570312 58.703125 65.289062 C 58.171875 65.023438 57.59375 65.023438 56.984375 65.023438 C 56.734375 65.023438 56.3125 65.023438 56.234375 65.007812 C 55.921875 64.960938 55.71875 64.664062 55.71875 64.335938 C 55.71875 64.304688 55.71875 64.070312 55.875 63.867188 C 56.265625 64.148438 56.6875 64.179688 56.875 64.179688 C 57.796875 64.179688 58.484375 63.492188 58.484375 62.726562 C 58.484375 62.351562 58.328125 61.992188 58.078125 61.757812 C 58.4375 61.414062 58.796875 61.367188 58.96875 61.367188 C 58.96875 61.367188 59.046875 61.367188 59.078125 61.382812 C 58.96875 61.414062 58.90625 61.523438 58.90625 61.648438 C 58.90625 61.820312 59.046875 61.929688 59.203125 61.929688 C 59.296875 61.929688 59.484375 61.867188 59.484375 61.632812 Z M 57.734375 62.710938 C 57.734375 62.976562 57.734375 63.304688 57.578125 63.554688 C 57.5 63.664062 57.265625 63.945312 56.875 63.945312 C 56 63.945312 56 62.945312 56 62.726562 C 56 62.460938 56.015625 62.132812 56.15625 61.882812 C 56.234375 61.773438 56.46875 61.492188 56.875 61.492188 C 57.734375 61.492188 57.734375 62.476562 57.734375 62.710938 Z M 58.828125 66.445312 C 58.828125 66.992188 58.125 67.492188 57.15625 67.492188 C 56.140625 67.492188 55.453125 66.976562 55.453125 66.445312 C 55.453125 65.992188 55.828125 65.617188 56.265625 65.601562 L 56.859375 65.601562 C 57.71875 65.601562 58.828125 65.601562 58.828125 66.445312 Z M 58.828125 66.445312 "
       id="path39" />
    <path
       style=" stroke:none;fill-rule:nonzero;fill:rgb(0%,0%,0%);fill-opacity:1;"
       d="M 64.105469 63.929688 L 63.871094 63.929688 C 63.808594 64.226562 63.746094 64.664062 63.636719 64.820312 C 63.574219 64.898438 62.917969 64.898438 62.699219 64.898438 L 60.902344 64.898438 L 61.964844 63.867188 C 63.511719 62.492188 64.105469 61.960938 64.105469 60.960938 C 64.105469 59.820312 63.214844 59.023438 61.996094 59.023438 C 60.871094 59.023438 60.136719 59.945312 60.136719 60.835938 C 60.136719 61.382812 60.636719 61.382812 60.667969 61.382812 C 60.839844 61.382812 61.183594 61.273438 61.183594 60.851562 C 61.183594 60.601562 60.996094 60.335938 60.652344 60.335938 C 60.574219 60.335938 60.558594 60.335938 60.527344 60.351562 C 60.746094 59.695312 61.292969 59.335938 61.871094 59.335938 C 62.777344 59.335938 63.199219 60.148438 63.199219 60.960938 C 63.199219 61.757812 62.714844 62.539062 62.152344 63.164062 L 60.246094 65.289062 C 60.136719 65.398438 60.136719 65.429688 60.136719 65.664062 L 63.839844 65.664062 Z M 64.105469 63.929688 "
       id="path41" />
    <path
       style=" stroke:none;fill-rule:nonzero;fill:rgb(0%,0%,0%);fill-opacity:1;"
       d="M 66.648438 65.648438 C 66.648438 65.023438 66.398438 64.601562 66.007812 64.601562 C 65.648438 64.601562 65.476562 64.882812 65.476562 65.132812 C 65.476562 65.398438 65.648438 65.664062 66.007812 65.664062 C 66.148438 65.664062 66.289062 65.601562 66.398438 65.507812 C 66.414062 66.289062 66.148438 66.898438 65.710938 67.367188 C 65.648438 67.429688 65.632812 67.445312 65.632812 67.476562 C 65.632812 67.554688 65.679688 67.585938 65.726562 67.585938 C 65.851562 67.585938 66.648438 66.804688 66.648438 65.648438 Z M 66.648438 65.648438 "
       id="path43" />
    <path
       style=" stroke:none;fill-rule:nonzero;fill:rgb(0%,0%,0%);fill-opacity:1;"
       d="M 75.53125 61.632812 C 75.53125 61.460938 75.421875 61.148438 75.03125 61.148438 C 74.828125 61.148438 74.390625 61.210938 73.96875 61.617188 C 73.546875 61.289062 73.140625 61.257812 72.921875 61.257812 C 71.984375 61.257812 71.296875 61.945312 71.296875 62.710938 C 71.296875 63.148438 71.515625 63.523438 71.765625 63.742188 C 71.640625 63.882812 71.453125 64.210938 71.453125 64.570312 C 71.453125 64.882812 71.59375 65.257812 71.90625 65.460938 C 71.296875 65.617188 70.984375 66.054688 70.984375 66.445312 C 70.984375 67.164062 71.96875 67.710938 73.1875 67.710938 C 74.359375 67.710938 75.390625 67.210938 75.390625 66.429688 C 75.390625 66.085938 75.265625 65.570312 74.75 65.289062 C 74.21875 65.023438 73.640625 65.023438 73.03125 65.023438 C 72.78125 65.023438 72.359375 65.023438 72.28125 65.007812 C 71.96875 64.960938 71.765625 64.664062 71.765625 64.335938 C 71.765625 64.304688 71.765625 64.070312 71.921875 63.867188 C 72.3125 64.148438 72.734375 64.179688 72.921875 64.179688 C 73.84375 64.179688 74.53125 63.492188 74.53125 62.726562 C 74.53125 62.351562 74.375 61.992188 74.125 61.757812 C 74.484375 61.414062 74.84375 61.367188 75.015625 61.367188 C 75.015625 61.367188 75.09375 61.367188 75.125 61.382812 C 75.015625 61.414062 74.953125 61.523438 74.953125 61.648438 C 74.953125 61.820312 75.09375 61.929688 75.25 61.929688 C 75.34375 61.929688 75.53125 61.867188 75.53125 61.632812 Z M 73.78125 62.710938 C 73.78125 62.976562 73.78125 63.304688 73.625 63.554688 C 73.546875 63.664062 73.3125 63.945312 72.921875 63.945312 C 72.046875 63.945312 72.046875 62.945312 72.046875 62.726562 C 72.046875 62.460938 72.0625 62.132812 72.203125 61.882812 C 72.28125 61.773438 72.515625 61.492188 72.921875 61.492188 C 73.78125 61.492188 73.78125 62.476562 73.78125 62.710938 Z M 74.875 66.445312 C 74.875 66.992188 74.171875 67.492188 73.203125 67.492188 C 72.1875 67.492188 71.5 66.976562 71.5 66.445312 C 71.5 65.992188 71.875 65.617188 72.3125 65.601562 L 72.90625 65.601562 C 73.765625 65.601562 74.875 65.601562 74.875 66.445312 Z M 74.875 66.445312 "
       id="path45" />
    <path
       style=" stroke:none;fill-rule:nonzero;fill:rgb(0%,0%,0%);fill-opacity:1;"
       d="M 80.25 63.960938 C 80.25 63.148438 79.609375 62.367188 78.578125 62.148438 C 79.390625 61.882812 79.96875 61.195312 79.96875 60.398438 C 79.96875 59.585938 79.09375 59.023438 78.140625 59.023438 C 77.140625 59.023438 76.375 59.617188 76.375 60.382812 C 76.375 60.710938 76.59375 60.898438 76.890625 60.898438 C 77.1875 60.898438 77.390625 60.679688 77.390625 60.382812 C 77.390625 59.898438 76.921875 59.898438 76.78125 59.898438 C 77.078125 59.398438 77.734375 59.273438 78.09375 59.273438 C 78.515625 59.273438 79.0625 59.492188 79.0625 60.382812 C 79.0625 60.507812 79.03125 61.085938 78.78125 61.523438 C 78.484375 62.007812 78.140625 62.039062 77.890625 62.039062 C 77.8125 62.054688 77.578125 62.070312 77.5 62.070312 C 77.421875 62.085938 77.359375 62.101562 77.359375 62.195312 C 77.359375 62.304688 77.421875 62.304688 77.59375 62.304688 L 78.03125 62.304688 C 78.84375 62.304688 79.21875 62.976562 79.21875 63.960938 C 79.21875 65.320312 78.53125 65.601562 78.09375 65.601562 C 77.65625 65.601562 76.90625 65.429688 76.5625 64.851562 C 76.90625 64.898438 77.21875 64.679688 77.21875 64.304688 C 77.21875 63.945312 76.953125 63.742188 76.671875 63.742188 C 76.421875 63.742188 76.109375 63.882812 76.109375 64.320312 C 76.109375 65.226562 77.03125 65.882812 78.125 65.882812 C 79.34375 65.882812 80.25 64.976562 80.25 63.960938 Z M 80.25 63.960938 "
       id="path47" />
    <path
       style=" stroke:none;fill-rule:nonzero;fill:rgb(0%,0%,0%);fill-opacity:1;"
       d="M 82.699219 65.648438 C 82.699219 65.023438 82.449219 64.601562 82.058594 64.601562 C 81.699219 64.601562 81.527344 64.882812 81.527344 65.132812 C 81.527344 65.398438 81.699219 65.664062 82.058594 65.664062 C 82.199219 65.664062 82.339844 65.601562 82.449219 65.507812 C 82.464844 66.289062 82.199219 66.898438 81.761719 67.367188 C 81.699219 67.429688 81.683594 67.445312 81.683594 67.476562 C 81.683594 67.554688 81.730469 67.585938 81.777344 67.585938 C 81.902344 67.585938 82.699219 66.804688 82.699219 65.648438 Z M 82.699219 65.648438 "
       id="path49" />
    <path
       style=" stroke:none;fill-rule:nonzero;fill:rgb(0%,0%,0%);fill-opacity:1;"
       d="M 91.582031 61.632812 C 91.582031 61.460938 91.472656 61.148438 91.082031 61.148438 C 90.878906 61.148438 90.441406 61.210938 90.019531 61.617188 C 89.597656 61.289062 89.191406 61.257812 88.972656 61.257812 C 88.035156 61.257812 87.347656 61.945312 87.347656 62.710938 C 87.347656 63.148438 87.566406 63.523438 87.816406 63.742188 C 87.691406 63.882812 87.503906 64.210938 87.503906 64.570312 C 87.503906 64.882812 87.644531 65.257812 87.957031 65.460938 C 87.347656 65.617188 87.035156 66.054688 87.035156 66.445312 C 87.035156 67.164062 88.019531 67.710938 89.238281 67.710938 C 90.410156 67.710938 91.441406 67.210938 91.441406 66.429688 C 91.441406 66.085938 91.316406 65.570312 90.800781 65.289062 C 90.269531 65.023438 89.691406 65.023438 89.082031 65.023438 C 88.832031 65.023438 88.410156 65.023438 88.332031 65.007812 C 88.019531 64.960938 87.816406 64.664062 87.816406 64.335938 C 87.816406 64.304688 87.816406 64.070312 87.972656 63.867188 C 88.363281 64.148438 88.785156 64.179688 88.972656 64.179688 C 89.894531 64.179688 90.582031 63.492188 90.582031 62.726562 C 90.582031 62.351562 90.425781 61.992188 90.175781 61.757812 C 90.535156 61.414062 90.894531 61.367188 91.066406 61.367188 C 91.066406 61.367188 91.144531 61.367188 91.175781 61.382812 C 91.066406 61.414062 91.003906 61.523438 91.003906 61.648438 C 91.003906 61.820312 91.144531 61.929688 91.300781 61.929688 C 91.394531 61.929688 91.582031 61.867188 91.582031 61.632812 Z M 89.832031 62.710938 C 89.832031 62.976562 89.832031 63.304688 89.675781 63.554688 C 89.597656 63.664062 89.363281 63.945312 88.972656 63.945312 C 88.097656 63.945312 88.097656 62.945312 88.097656 62.726562 C 88.097656 62.460938 88.113281 62.132812 88.253906 61.882812 C 88.332031 61.773438 88.566406 61.492188 88.972656 61.492188 C 89.832031 61.492188 89.832031 62.476562 89.832031 62.710938 Z M 90.925781 66.445312 C 90.925781 66.992188 90.222656 67.492188 89.253906 67.492188 C 88.238281 67.492188 87.550781 66.976562 87.550781 66.445312 C 87.550781 65.992188 87.925781 65.617188 88.363281 65.601562 L 88.957031 65.601562 C 89.816406 65.601562 90.925781 65.601562 90.925781 66.445312 Z M 90.925781 66.445312 "
       id="path51" />
    <path
       style=" stroke:none;fill-rule:nonzero;fill:rgb(0%,0%,0%);fill-opacity:1;"
       d="M 96.421875 64.023438 L 96.421875 63.710938 L 95.4375 63.710938 L 95.4375 59.179688 C 95.4375 58.976562 95.4375 58.914062 95.265625 58.914062 C 95.1875 58.914062 95.15625 58.914062 95.078125 59.039062 L 92.015625 63.710938 L 92.015625 64.023438 L 94.671875 64.023438 L 94.671875 64.882812 C 94.671875 65.242188 94.640625 65.351562 93.90625 65.351562 L 93.703125 65.351562 L 93.703125 65.664062 C 94.109375 65.632812 94.625 65.632812 95.046875 65.632812 C 95.46875 65.632812 95.984375 65.632812 96.40625 65.664062 L 96.40625 65.351562 L 96.1875 65.351562 C 95.453125 65.351562 95.4375 65.242188 95.4375 64.882812 L 95.4375 64.023438 Z M 94.71875 63.710938 L 92.296875 63.710938 L 94.71875 59.992188 Z M 94.71875 63.710938 "
       id="path53" />
    <path
       style=" stroke:none;fill-rule:nonzero;fill:rgb(0%,0%,0%);fill-opacity:1;"
       d="M 133.9375 42.535156 C 133.9375 41.710938 133.269531 41.039062 132.445312 41.039062 C 131.617188 41.039062 130.949219 41.710938 130.949219 42.535156 C 130.949219 43.359375 131.617188 44.027344 132.445312 44.027344 C 133.269531 44.027344 133.9375 43.359375 133.9375 42.535156 Z M 133.9375 42.535156 "
       id="path55" />
    <path
       style=" stroke:none;fill-rule:nonzero;fill:rgb(0%,0%,0%);fill-opacity:1;"
       d="M 142.753906 40.792969 C 142.753906 40.621094 142.644531 40.308594 142.253906 40.308594 C 142.050781 40.308594 141.613281 40.371094 141.191406 40.777344 C 140.769531 40.449219 140.363281 40.417969 140.144531 40.417969 C 139.207031 40.417969 138.519531 41.105469 138.519531 41.871094 C 138.519531 42.308594 138.738281 42.683594 138.988281 42.902344 C 138.863281 43.042969 138.675781 43.371094 138.675781 43.730469 C 138.675781 44.042969 138.816406 44.417969 139.128906 44.621094 C 138.519531 44.777344 138.207031 45.214844 138.207031 45.605469 C 138.207031 46.324219 139.191406 46.871094 140.410156 46.871094 C 141.582031 46.871094 142.613281 46.371094 142.613281 45.589844 C 142.613281 45.246094 142.488281 44.730469 141.972656 44.449219 C 141.441406 44.183594 140.863281 44.183594 140.253906 44.183594 C 140.003906 44.183594 139.582031 44.183594 139.503906 44.167969 C 139.191406 44.121094 138.988281 43.824219 138.988281 43.496094 C 138.988281 43.464844 138.988281 43.230469 139.144531 43.027344 C 139.535156 43.308594 139.957031 43.339844 140.144531 43.339844 C 141.066406 43.339844 141.753906 42.652344 141.753906 41.886719 C 141.753906 41.511719 141.597656 41.152344 141.347656 40.917969 C 141.707031 40.574219 142.066406 40.527344 142.238281 40.527344 C 142.238281 40.527344 142.316406 40.527344 142.347656 40.542969 C 142.238281 40.574219 142.175781 40.683594 142.175781 40.808594 C 142.175781 40.980469 142.316406 41.089844 142.472656 41.089844 C 142.566406 41.089844 142.753906 41.027344 142.753906 40.792969 Z M 141.003906 41.871094 C 141.003906 42.136719 141.003906 42.464844 140.847656 42.714844 C 140.769531 42.824219 140.535156 43.105469 140.144531 43.105469 C 139.269531 43.105469 139.269531 42.105469 139.269531 41.886719 C 139.269531 41.621094 139.285156 41.292969 139.425781 41.042969 C 139.503906 40.933594 139.738281 40.652344 140.144531 40.652344 C 141.003906 40.652344 141.003906 41.636719 141.003906 41.871094 Z M 142.097656 45.605469 C 142.097656 46.152344 141.394531 46.652344 140.425781 46.652344 C 139.410156 46.652344 138.722656 46.136719 138.722656 45.605469 C 138.722656 45.152344 139.097656 44.777344 139.535156 44.761719 L 140.128906 44.761719 C 140.988281 44.761719 142.097656 44.761719 142.097656 45.605469 Z M 142.097656 45.605469 "
       id="path57" />
    <path
       style=" stroke:none;fill-rule:nonzero;fill:rgb(0%,0%,0%);fill-opacity:1;"
       d="M 147.078125 44.824219 L 147.078125 44.511719 L 146.765625 44.511719 C 145.859375 44.511719 145.84375 44.402344 145.84375 44.042969 L 145.84375 38.449219 C 145.84375 38.199219 145.84375 38.183594 145.609375 38.183594 C 144.984375 38.824219 144.109375 38.824219 143.796875 38.824219 L 143.796875 39.136719 C 144 39.136719 144.578125 39.136719 145.09375 38.871094 L 145.09375 44.042969 C 145.09375 44.402344 145.0625 44.511719 144.171875 44.511719 L 143.859375 44.511719 L 143.859375 44.824219 C 144.203125 44.792969 145.0625 44.792969 145.46875 44.792969 C 145.859375 44.792969 146.734375 44.792969 147.078125 44.824219 Z M 147.078125 44.824219 "
       id="path59" />
    <path
       style=" stroke:none;fill-rule:nonzero;fill:rgb(0%,0%,0%);fill-opacity:1;"
       d="M 149.917969 44.808594 C 149.917969 44.183594 149.667969 43.761719 149.277344 43.761719 C 148.917969 43.761719 148.746094 44.042969 148.746094 44.292969 C 148.746094 44.558594 148.917969 44.824219 149.277344 44.824219 C 149.417969 44.824219 149.558594 44.761719 149.667969 44.667969 C 149.683594 45.449219 149.417969 46.058594 148.980469 46.527344 C 148.917969 46.589844 148.902344 46.605469 148.902344 46.636719 C 148.902344 46.714844 148.949219 46.746094 148.996094 46.746094 C 149.121094 46.746094 149.917969 45.964844 149.917969 44.808594 Z M 149.917969 44.808594 "
       id="path61" />
    <path
       style=" stroke:none;fill-rule:nonzero;fill:rgb(0%,0%,0%);fill-opacity:1;"
       d="M 158.800781 40.792969 C 158.800781 40.621094 158.691406 40.308594 158.300781 40.308594 C 158.097656 40.308594 157.660156 40.371094 157.238281 40.777344 C 156.816406 40.449219 156.410156 40.417969 156.191406 40.417969 C 155.253906 40.417969 154.566406 41.105469 154.566406 41.871094 C 154.566406 42.308594 154.785156 42.683594 155.035156 42.902344 C 154.910156 43.042969 154.722656 43.371094 154.722656 43.730469 C 154.722656 44.042969 154.863281 44.417969 155.175781 44.621094 C 154.566406 44.777344 154.253906 45.214844 154.253906 45.605469 C 154.253906 46.324219 155.238281 46.871094 156.457031 46.871094 C 157.628906 46.871094 158.660156 46.371094 158.660156 45.589844 C 158.660156 45.246094 158.535156 44.730469 158.019531 44.449219 C 157.488281 44.183594 156.910156 44.183594 156.300781 44.183594 C 156.050781 44.183594 155.628906 44.183594 155.550781 44.167969 C 155.238281 44.121094 155.035156 43.824219 155.035156 43.496094 C 155.035156 43.464844 155.035156 43.230469 155.191406 43.027344 C 155.582031 43.308594 156.003906 43.339844 156.191406 43.339844 C 157.113281 43.339844 157.800781 42.652344 157.800781 41.886719 C 157.800781 41.511719 157.644531 41.152344 157.394531 40.917969 C 157.753906 40.574219 158.113281 40.527344 158.285156 40.527344 C 158.285156 40.527344 158.363281 40.527344 158.394531 40.542969 C 158.285156 40.574219 158.222656 40.683594 158.222656 40.808594 C 158.222656 40.980469 158.363281 41.089844 158.519531 41.089844 C 158.613281 41.089844 158.800781 41.027344 158.800781 40.792969 Z M 157.050781 41.871094 C 157.050781 42.136719 157.050781 42.464844 156.894531 42.714844 C 156.816406 42.824219 156.582031 43.105469 156.191406 43.105469 C 155.316406 43.105469 155.316406 42.105469 155.316406 41.886719 C 155.316406 41.621094 155.332031 41.292969 155.472656 41.042969 C 155.550781 40.933594 155.785156 40.652344 156.191406 40.652344 C 157.050781 40.652344 157.050781 41.636719 157.050781 41.871094 Z M 158.144531 45.605469 C 158.144531 46.152344 157.441406 46.652344 156.472656 46.652344 C 155.457031 46.652344 154.769531 46.136719 154.769531 45.605469 C 154.769531 45.152344 155.144531 44.777344 155.582031 44.761719 L 156.175781 44.761719 C 157.035156 44.761719 158.144531 44.761719 158.144531 45.605469 Z M 158.144531 45.605469 "
       id="path63" />
    <path
       style=" stroke:none;fill-rule:nonzero;fill:rgb(0%,0%,0%);fill-opacity:1;"
       d="M 163.421875 43.089844 L 163.1875 43.089844 C 163.125 43.386719 163.0625 43.824219 162.953125 43.980469 C 162.890625 44.058594 162.234375 44.058594 162.015625 44.058594 L 160.21875 44.058594 L 161.28125 43.027344 C 162.828125 41.652344 163.421875 41.121094 163.421875 40.121094 C 163.421875 38.980469 162.53125 38.183594 161.3125 38.183594 C 160.1875 38.183594 159.453125 39.105469 159.453125 39.996094 C 159.453125 40.542969 159.953125 40.542969 159.984375 40.542969 C 160.15625 40.542969 160.5 40.433594 160.5 40.011719 C 160.5 39.761719 160.3125 39.496094 159.96875 39.496094 C 159.890625 39.496094 159.875 39.496094 159.84375 39.511719 C 160.0625 38.855469 160.609375 38.496094 161.1875 38.496094 C 162.09375 38.496094 162.515625 39.308594 162.515625 40.121094 C 162.515625 40.917969 162.03125 41.699219 161.46875 42.324219 L 159.5625 44.449219 C 159.453125 44.558594 159.453125 44.589844 159.453125 44.824219 L 163.15625 44.824219 Z M 163.421875 43.089844 "
       id="path65" />
    <path
       style=" stroke:none;fill-rule:nonzero;fill:rgb(0%,0%,0%);fill-opacity:1;"
       d="M 165.96875 44.808594 C 165.96875 44.183594 165.71875 43.761719 165.328125 43.761719 C 164.96875 43.761719 164.796875 44.042969 164.796875 44.292969 C 164.796875 44.558594 164.96875 44.824219 165.328125 44.824219 C 165.46875 44.824219 165.609375 44.761719 165.71875 44.667969 C 165.734375 45.449219 165.46875 46.058594 165.03125 46.527344 C 164.96875 46.589844 164.953125 46.605469 164.953125 46.636719 C 164.953125 46.714844 165 46.746094 165.046875 46.746094 C 165.171875 46.746094 165.96875 45.964844 165.96875 44.808594 Z M 165.96875 44.808594 "
       id="path67" />
    <path
       style=" stroke:none;fill-rule:nonzero;fill:rgb(0%,0%,0%);fill-opacity:1;"
       d="M 174.851562 40.792969 C 174.851562 40.621094 174.742188 40.308594 174.351562 40.308594 C 174.148438 40.308594 173.710938 40.371094 173.289062 40.777344 C 172.867188 40.449219 172.460938 40.417969 172.242188 40.417969 C 171.304688 40.417969 170.617188 41.105469 170.617188 41.871094 C 170.617188 42.308594 170.835938 42.683594 171.085938 42.902344 C 170.960938 43.042969 170.773438 43.371094 170.773438 43.730469 C 170.773438 44.042969 170.914062 44.417969 171.226562 44.621094 C 170.617188 44.777344 170.304688 45.214844 170.304688 45.605469 C 170.304688 46.324219 171.289062 46.871094 172.507812 46.871094 C 173.679688 46.871094 174.710938 46.371094 174.710938 45.589844 C 174.710938 45.246094 174.585938 44.730469 174.070312 44.449219 C 173.539062 44.183594 172.960938 44.183594 172.351562 44.183594 C 172.101562 44.183594 171.679688 44.183594 171.601562 44.167969 C 171.289062 44.121094 171.085938 43.824219 171.085938 43.496094 C 171.085938 43.464844 171.085938 43.230469 171.242188 43.027344 C 171.632812 43.308594 172.054688 43.339844 172.242188 43.339844 C 173.164062 43.339844 173.851562 42.652344 173.851562 41.886719 C 173.851562 41.511719 173.695312 41.152344 173.445312 40.917969 C 173.804688 40.574219 174.164062 40.527344 174.335938 40.527344 C 174.335938 40.527344 174.414062 40.527344 174.445312 40.542969 C 174.335938 40.574219 174.273438 40.683594 174.273438 40.808594 C 174.273438 40.980469 174.414062 41.089844 174.570312 41.089844 C 174.664062 41.089844 174.851562 41.027344 174.851562 40.792969 Z M 173.101562 41.871094 C 173.101562 42.136719 173.101562 42.464844 172.945312 42.714844 C 172.867188 42.824219 172.632812 43.105469 172.242188 43.105469 C 171.367188 43.105469 171.367188 42.105469 171.367188 41.886719 C 171.367188 41.621094 171.382812 41.292969 171.523438 41.042969 C 171.601562 40.933594 171.835938 40.652344 172.242188 40.652344 C 173.101562 40.652344 173.101562 41.636719 173.101562 41.871094 Z M 174.195312 45.605469 C 174.195312 46.152344 173.492188 46.652344 172.523438 46.652344 C 171.507812 46.652344 170.820312 46.136719 170.820312 45.605469 C 170.820312 45.152344 171.195312 44.777344 171.632812 44.761719 L 172.226562 44.761719 C 173.085938 44.761719 174.195312 44.761719 174.195312 45.605469 Z M 174.195312 45.605469 "
       id="path69" />
    <path
       style=" stroke:none;fill-rule:nonzero;fill:rgb(0%,0%,0%);fill-opacity:1;"
       d="M 179.566406 43.121094 C 179.566406 42.308594 178.925781 41.527344 177.894531 41.308594 C 178.707031 41.042969 179.285156 40.355469 179.285156 39.558594 C 179.285156 38.746094 178.410156 38.183594 177.457031 38.183594 C 176.457031 38.183594 175.691406 38.777344 175.691406 39.542969 C 175.691406 39.871094 175.910156 40.058594 176.207031 40.058594 C 176.503906 40.058594 176.707031 39.839844 176.707031 39.542969 C 176.707031 39.058594 176.238281 39.058594 176.097656 39.058594 C 176.394531 38.558594 177.050781 38.433594 177.410156 38.433594 C 177.832031 38.433594 178.378906 38.652344 178.378906 39.542969 C 178.378906 39.667969 178.347656 40.246094 178.097656 40.683594 C 177.800781 41.167969 177.457031 41.199219 177.207031 41.199219 C 177.128906 41.214844 176.894531 41.230469 176.816406 41.230469 C 176.738281 41.246094 176.675781 41.261719 176.675781 41.355469 C 176.675781 41.464844 176.738281 41.464844 176.910156 41.464844 L 177.347656 41.464844 C 178.160156 41.464844 178.535156 42.136719 178.535156 43.121094 C 178.535156 44.480469 177.847656 44.761719 177.410156 44.761719 C 176.972656 44.761719 176.222656 44.589844 175.878906 44.011719 C 176.222656 44.058594 176.535156 43.839844 176.535156 43.464844 C 176.535156 43.105469 176.269531 42.902344 175.988281 42.902344 C 175.738281 42.902344 175.425781 43.042969 175.425781 43.480469 C 175.425781 44.386719 176.347656 45.042969 177.441406 45.042969 C 178.660156 45.042969 179.566406 44.136719 179.566406 43.121094 Z M 179.566406 43.121094 "
       id="path71" />
    <path
       style=" stroke:none;fill-rule:nonzero;fill:rgb(0%,0%,0%);fill-opacity:1;"
       d="M 133.9375 28.8125 C 133.9375 27.984375 133.269531 27.316406 132.445312 27.316406 C 131.617188 27.316406 130.949219 27.984375 130.949219 28.8125 C 130.949219 29.636719 131.617188 30.304688 132.445312 30.304688 C 133.269531 30.304688 133.9375 29.636719 133.9375 28.8125 Z M 133.9375 28.8125 "
       id="path73" />
    <path
       style=" stroke:none;fill-rule:nonzero;fill:rgb(0%,0%,0%);fill-opacity:1;"
       d="M 142.753906 27.125 C 142.753906 26.953125 142.644531 26.640625 142.253906 26.640625 C 142.050781 26.640625 141.613281 26.703125 141.191406 27.109375 C 140.769531 26.78125 140.363281 26.75 140.144531 26.75 C 139.207031 26.75 138.519531 27.4375 138.519531 28.203125 C 138.519531 28.640625 138.738281 29.015625 138.988281 29.234375 C 138.863281 29.375 138.675781 29.703125 138.675781 30.0625 C 138.675781 30.375 138.816406 30.75 139.128906 30.953125 C 138.519531 31.109375 138.207031 31.546875 138.207031 31.9375 C 138.207031 32.65625 139.191406 33.203125 140.410156 33.203125 C 141.582031 33.203125 142.613281 32.703125 142.613281 31.921875 C 142.613281 31.578125 142.488281 31.0625 141.972656 30.78125 C 141.441406 30.515625 140.863281 30.515625 140.253906 30.515625 C 140.003906 30.515625 139.582031 30.515625 139.503906 30.5 C 139.191406 30.453125 138.988281 30.15625 138.988281 29.828125 C 138.988281 29.796875 138.988281 29.5625 139.144531 29.359375 C 139.535156 29.640625 139.957031 29.671875 140.144531 29.671875 C 141.066406 29.671875 141.753906 28.984375 141.753906 28.21875 C 141.753906 27.84375 141.597656 27.484375 141.347656 27.25 C 141.707031 26.90625 142.066406 26.859375 142.238281 26.859375 C 142.238281 26.859375 142.316406 26.859375 142.347656 26.875 C 142.238281 26.90625 142.175781 27.015625 142.175781 27.140625 C 142.175781 27.3125 142.316406 27.421875 142.472656 27.421875 C 142.566406 27.421875 142.753906 27.359375 142.753906 27.125 Z M 141.003906 28.203125 C 141.003906 28.46875 141.003906 28.796875 140.847656 29.046875 C 140.769531 29.15625 140.535156 29.4375 140.144531 29.4375 C 139.269531 29.4375 139.269531 28.4375 139.269531 28.21875 C 139.269531 27.953125 139.285156 27.625 139.425781 27.375 C 139.503906 27.265625 139.738281 26.984375 140.144531 26.984375 C 141.003906 26.984375 141.003906 27.96875 141.003906 28.203125 Z M 142.097656 31.9375 C 142.097656 32.484375 141.394531 32.984375 140.425781 32.984375 C 139.410156 32.984375 138.722656 32.46875 138.722656 31.9375 C 138.722656 31.484375 139.097656 31.109375 139.535156 31.09375 L 140.128906 31.09375 C 140.988281 31.09375 142.097656 31.09375 142.097656 31.9375 Z M 142.097656 31.9375 "
       id="path75" />
    <path
       style=" stroke:none;fill-rule:nonzero;fill:rgb(0%,0%,0%);fill-opacity:1;"
       d="M 147.078125 31.15625 L 147.078125 30.84375 L 146.765625 30.84375 C 145.859375 30.84375 145.84375 30.734375 145.84375 30.375 L 145.84375 24.78125 C 145.84375 24.53125 145.84375 24.515625 145.609375 24.515625 C 144.984375 25.15625 144.109375 25.15625 143.796875 25.15625 L 143.796875 25.46875 C 144 25.46875 144.578125 25.46875 145.09375 25.203125 L 145.09375 30.375 C 145.09375 30.734375 145.0625 30.84375 144.171875 30.84375 L 143.859375 30.84375 L 143.859375 31.15625 C 144.203125 31.125 145.0625 31.125 145.46875 31.125 C 145.859375 31.125 146.734375 31.125 147.078125 31.15625 Z M 147.078125 31.15625 "
       id="path77" />
    <path
       style=" stroke:none;fill-rule:nonzero;fill:rgb(0%,0%,0%);fill-opacity:1;"
       d="M 149.917969 31.140625 C 149.917969 30.515625 149.667969 30.09375 149.277344 30.09375 C 148.917969 30.09375 148.746094 30.375 148.746094 30.625 C 148.746094 30.890625 148.917969 31.15625 149.277344 31.15625 C 149.417969 31.15625 149.558594 31.09375 149.667969 31 C 149.683594 31.78125 149.417969 32.390625 148.980469 32.859375 C 148.917969 32.921875 148.902344 32.9375 148.902344 32.96875 C 148.902344 33.046875 148.949219 33.078125 148.996094 33.078125 C 149.121094 33.078125 149.917969 32.296875 149.917969 31.140625 Z M 149.917969 31.140625 "
       id="path79" />
    <path
       style=" stroke:none;fill-rule:nonzero;fill:rgb(0%,0%,0%);fill-opacity:1;"
       d="M 158.800781 27.125 C 158.800781 26.953125 158.691406 26.640625 158.300781 26.640625 C 158.097656 26.640625 157.660156 26.703125 157.238281 27.109375 C 156.816406 26.78125 156.410156 26.75 156.191406 26.75 C 155.253906 26.75 154.566406 27.4375 154.566406 28.203125 C 154.566406 28.640625 154.785156 29.015625 155.035156 29.234375 C 154.910156 29.375 154.722656 29.703125 154.722656 30.0625 C 154.722656 30.375 154.863281 30.75 155.175781 30.953125 C 154.566406 31.109375 154.253906 31.546875 154.253906 31.9375 C 154.253906 32.65625 155.238281 33.203125 156.457031 33.203125 C 157.628906 33.203125 158.660156 32.703125 158.660156 31.921875 C 158.660156 31.578125 158.535156 31.0625 158.019531 30.78125 C 157.488281 30.515625 156.910156 30.515625 156.300781 30.515625 C 156.050781 30.515625 155.628906 30.515625 155.550781 30.5 C 155.238281 30.453125 155.035156 30.15625 155.035156 29.828125 C 155.035156 29.796875 155.035156 29.5625 155.191406 29.359375 C 155.582031 29.640625 156.003906 29.671875 156.191406 29.671875 C 157.113281 29.671875 157.800781 28.984375 157.800781 28.21875 C 157.800781 27.84375 157.644531 27.484375 157.394531 27.25 C 157.753906 26.90625 158.113281 26.859375 158.285156 26.859375 C 158.285156 26.859375 158.363281 26.859375 158.394531 26.875 C 158.285156 26.90625 158.222656 27.015625 158.222656 27.140625 C 158.222656 27.3125 158.363281 27.421875 158.519531 27.421875 C 158.613281 27.421875 158.800781 27.359375 158.800781 27.125 Z M 157.050781 28.203125 C 157.050781 28.46875 157.050781 28.796875 156.894531 29.046875 C 156.816406 29.15625 156.582031 29.4375 156.191406 29.4375 C 155.316406 29.4375 155.316406 28.4375 155.316406 28.21875 C 155.316406 27.953125 155.332031 27.625 155.472656 27.375 C 155.550781 27.265625 155.785156 26.984375 156.191406 26.984375 C 157.050781 26.984375 157.050781 27.96875 157.050781 28.203125 Z M 158.144531 31.9375 C 158.144531 32.484375 157.441406 32.984375 156.472656 32.984375 C 155.457031 32.984375 154.769531 32.46875 154.769531 31.9375 C 154.769531 31.484375 155.144531 31.109375 155.582031 31.09375 L 156.175781 31.09375 C 157.035156 31.09375 158.144531 31.09375 158.144531 31.9375 Z M 158.144531 31.9375 "
       id="path81" />
    <path
       style=" stroke:none;fill-rule:nonzero;fill:rgb(0%,0%,0%);fill-opacity:1;"
       d="M 163.515625 29.453125 C 163.515625 28.640625 162.875 27.859375 161.84375 27.640625 C 162.65625 27.375 163.234375 26.6875 163.234375 25.890625 C 163.234375 25.078125 162.359375 24.515625 161.40625 24.515625 C 160.40625 24.515625 159.640625 25.109375 159.640625 25.875 C 159.640625 26.203125 159.859375 26.390625 160.15625 26.390625 C 160.453125 26.390625 160.65625 26.171875 160.65625 25.875 C 160.65625 25.390625 160.1875 25.390625 160.046875 25.390625 C 160.34375 24.890625 161 24.765625 161.359375 24.765625 C 161.78125 24.765625 162.328125 24.984375 162.328125 25.875 C 162.328125 26 162.296875 26.578125 162.046875 27.015625 C 161.75 27.5 161.40625 27.53125 161.15625 27.53125 C 161.078125 27.546875 160.84375 27.5625 160.765625 27.5625 C 160.6875 27.578125 160.625 27.59375 160.625 27.6875 C 160.625 27.796875 160.6875 27.796875 160.859375 27.796875 L 161.296875 27.796875 C 162.109375 27.796875 162.484375 28.46875 162.484375 29.453125 C 162.484375 30.8125 161.796875 31.09375 161.359375 31.09375 C 160.921875 31.09375 160.171875 30.921875 159.828125 30.34375 C 160.171875 30.390625 160.484375 30.171875 160.484375 29.796875 C 160.484375 29.4375 160.21875 29.234375 159.9375 29.234375 C 159.6875 29.234375 159.375 29.375 159.375 29.8125 C 159.375 30.71875 160.296875 31.375 161.390625 31.375 C 162.609375 31.375 163.515625 30.46875 163.515625 29.453125 Z M 163.515625 29.453125 "
       id="path83" />
    <path
       style=" stroke:none;fill-rule:nonzero;fill:rgb(0%,0%,0%);fill-opacity:1;"
       d="M 165.96875 31.140625 C 165.96875 30.515625 165.71875 30.09375 165.328125 30.09375 C 164.96875 30.09375 164.796875 30.375 164.796875 30.625 C 164.796875 30.890625 164.96875 31.15625 165.328125 31.15625 C 165.46875 31.15625 165.609375 31.09375 165.71875 31 C 165.734375 31.78125 165.46875 32.390625 165.03125 32.859375 C 164.96875 32.921875 164.953125 32.9375 164.953125 32.96875 C 164.953125 33.046875 165 33.078125 165.046875 33.078125 C 165.171875 33.078125 165.96875 32.296875 165.96875 31.140625 Z M 165.96875 31.140625 "
       id="path85" />
    <path
       style=" stroke:none;fill-rule:nonzero;fill:rgb(0%,0%,0%);fill-opacity:1;"
       d="M 174.851562 27.125 C 174.851562 26.953125 174.742188 26.640625 174.351562 26.640625 C 174.148438 26.640625 173.710938 26.703125 173.289062 27.109375 C 172.867188 26.78125 172.460938 26.75 172.242188 26.75 C 171.304688 26.75 170.617188 27.4375 170.617188 28.203125 C 170.617188 28.640625 170.835938 29.015625 171.085938 29.234375 C 170.960938 29.375 170.773438 29.703125 170.773438 30.0625 C 170.773438 30.375 170.914062 30.75 171.226562 30.953125 C 170.617188 31.109375 170.304688 31.546875 170.304688 31.9375 C 170.304688 32.65625 171.289062 33.203125 172.507812 33.203125 C 173.679688 33.203125 174.710938 32.703125 174.710938 31.921875 C 174.710938 31.578125 174.585938 31.0625 174.070312 30.78125 C 173.539062 30.515625 172.960938 30.515625 172.351562 30.515625 C 172.101562 30.515625 171.679688 30.515625 171.601562 30.5 C 171.289062 30.453125 171.085938 30.15625 171.085938 29.828125 C 171.085938 29.796875 171.085938 29.5625 171.242188 29.359375 C 171.632812 29.640625 172.054688 29.671875 172.242188 29.671875 C 173.164062 29.671875 173.851562 28.984375 173.851562 28.21875 C 173.851562 27.84375 173.695312 27.484375 173.445312 27.25 C 173.804688 26.90625 174.164062 26.859375 174.335938 26.859375 C 174.335938 26.859375 174.414062 26.859375 174.445312 26.875 C 174.335938 26.90625 174.273438 27.015625 174.273438 27.140625 C 174.273438 27.3125 174.414062 27.421875 174.570312 27.421875 C 174.664062 27.421875 174.851562 27.359375 174.851562 27.125 Z M 173.101562 28.203125 C 173.101562 28.46875 173.101562 28.796875 172.945312 29.046875 C 172.867188 29.15625 172.632812 29.4375 172.242188 29.4375 C 171.367188 29.4375 171.367188 28.4375 171.367188 28.21875 C 171.367188 27.953125 171.382812 27.625 171.523438 27.375 C 171.601562 27.265625 171.835938 26.984375 172.242188 26.984375 C 173.101562 26.984375 173.101562 27.96875 173.101562 28.203125 Z M 174.195312 31.9375 C 174.195312 32.484375 173.492188 32.984375 172.523438 32.984375 C 171.507812 32.984375 170.820312 32.46875 170.820312 31.9375 C 170.820312 31.484375 171.195312 31.109375 171.632812 31.09375 L 172.226562 31.09375 C 173.085938 31.09375 174.195312 31.09375 174.195312 31.9375 Z M 174.195312 31.9375 "
       id="path87" />
    <path
       style=" stroke:none;fill-rule:nonzero;fill:rgb(0%,0%,0%);fill-opacity:1;"
       d="M 179.691406 29.515625 L 179.691406 29.203125 L 178.707031 29.203125 L 178.707031 24.671875 C 178.707031 24.46875 178.707031 24.40625 178.535156 24.40625 C 178.457031 24.40625 178.425781 24.40625 178.347656 24.53125 L 175.285156 29.203125 L 175.285156 29.515625 L 177.941406 29.515625 L 177.941406 30.375 C 177.941406 30.734375 177.910156 30.84375 177.175781 30.84375 L 176.972656 30.84375 L 176.972656 31.15625 C 177.378906 31.125 177.894531 31.125 178.316406 31.125 C 178.738281 31.125 179.253906 31.125 179.675781 31.15625 L 179.675781 30.84375 L 179.457031 30.84375 C 178.722656 30.84375 178.707031 30.734375 178.707031 30.375 L 178.707031 29.515625 Z M 177.988281 29.203125 L 175.566406 29.203125 L 177.988281 25.484375 Z M 177.988281 29.203125 "
       id="path89" />
    <path
       style="fill-rule:nonzero;fill:rgb(92.155457%,92.155457%,92.155457%);fill-opacity:1;stroke-width:0.49814;stroke-linecap:butt;stroke-linejoin:miter;stroke:rgb(0%,0%,0%);stroke-opacity:1;stroke-miterlimit:10;"
       d="M 118.746094 31.6875 L 126.714844 31.6875 L 126.714844 39.65625 L 118.746094 39.65625 Z M 118.746094 31.6875 "
       id="path91" />
    <path
       style=" stroke:none;fill-rule:nonzero;fill:rgb(0%,0%,0%);fill-opacity:1;"
       d="M 117.890625 84.152344 C 117.890625 83.328125 117.21875 82.660156 116.394531 82.660156 C 115.570312 82.660156 114.898438 83.328125 114.898438 84.152344 C 114.898438 84.980469 115.570312 85.648438 116.394531 85.648438 C 117.21875 85.648438 117.890625 84.980469 117.890625 84.152344 Z M 117.890625 84.152344 "
       id="path93" />
    <path
       style=" stroke:none;fill-rule:nonzero;fill:rgb(0%,0%,0%);fill-opacity:1;"
       d="M 126.703125 82.46875 C 126.703125 82.296875 126.59375 81.984375 126.203125 81.984375 C 126 81.984375 125.5625 82.046875 125.140625 82.453125 C 124.71875 82.125 124.3125 82.09375 124.09375 82.09375 C 123.15625 82.09375 122.46875 82.78125 122.46875 83.546875 C 122.46875 83.984375 122.6875 84.359375 122.9375 84.578125 C 122.8125 84.71875 122.625 85.046875 122.625 85.40625 C 122.625 85.71875 122.765625 86.09375 123.078125 86.296875 C 122.46875 86.453125 122.15625 86.890625 122.15625 87.28125 C 122.15625 88 123.140625 88.546875 124.359375 88.546875 C 125.53125 88.546875 126.5625 88.046875 126.5625 87.265625 C 126.5625 86.921875 126.4375 86.40625 125.921875 86.125 C 125.390625 85.859375 124.8125 85.859375 124.203125 85.859375 C 123.953125 85.859375 123.53125 85.859375 123.453125 85.84375 C 123.140625 85.796875 122.9375 85.5 122.9375 85.171875 C 122.9375 85.140625 122.9375 84.90625 123.09375 84.703125 C 123.484375 84.984375 123.90625 85.015625 124.09375 85.015625 C 125.015625 85.015625 125.703125 84.328125 125.703125 83.5625 C 125.703125 83.1875 125.546875 82.828125 125.296875 82.59375 C 125.65625 82.25 126.015625 82.203125 126.1875 82.203125 C 126.1875 82.203125 126.265625 82.203125 126.296875 82.21875 C 126.1875 82.25 126.125 82.359375 126.125 82.484375 C 126.125 82.65625 126.265625 82.765625 126.421875 82.765625 C 126.515625 82.765625 126.703125 82.703125 126.703125 82.46875 Z M 124.953125 83.546875 C 124.953125 83.8125 124.953125 84.140625 124.796875 84.390625 C 124.71875 84.5 124.484375 84.78125 124.09375 84.78125 C 123.21875 84.78125 123.21875 83.78125 123.21875 83.5625 C 123.21875 83.296875 123.234375 82.96875 123.375 82.71875 C 123.453125 82.609375 123.6875 82.328125 124.09375 82.328125 C 124.953125 82.328125 124.953125 83.3125 124.953125 83.546875 Z M 126.046875 87.28125 C 126.046875 87.828125 125.34375 88.328125 124.375 88.328125 C 123.359375 88.328125 122.671875 87.8125 122.671875 87.28125 C 122.671875 86.828125 123.046875 86.453125 123.484375 86.4375 L 124.078125 86.4375 C 124.9375 86.4375 126.046875 86.4375 126.046875 87.28125 Z M 126.046875 87.28125 "
       id="path95" />
    <path
       style=" stroke:none;fill-rule:nonzero;fill:rgb(0%,0%,0%);fill-opacity:1;"
       d="M 131.027344 86.5 L 131.027344 86.1875 L 130.714844 86.1875 C 129.808594 86.1875 129.792969 86.078125 129.792969 85.71875 L 129.792969 80.125 C 129.792969 79.875 129.792969 79.859375 129.558594 79.859375 C 128.933594 80.5 128.058594 80.5 127.746094 80.5 L 127.746094 80.8125 C 127.949219 80.8125 128.527344 80.8125 129.042969 80.546875 L 129.042969 85.71875 C 129.042969 86.078125 129.011719 86.1875 128.121094 86.1875 L 127.808594 86.1875 L 127.808594 86.5 C 128.152344 86.46875 129.011719 86.46875 129.417969 86.46875 C 129.808594 86.46875 130.683594 86.46875 131.027344 86.5 Z M 131.027344 86.5 "
       id="path97" />
    <path
       style=" stroke:none;fill-rule:nonzero;fill:rgb(0%,0%,0%);fill-opacity:1;"
       d="M 133.867188 86.484375 C 133.867188 85.859375 133.617188 85.4375 133.226562 85.4375 C 132.867188 85.4375 132.695312 85.71875 132.695312 85.96875 C 132.695312 86.234375 132.867188 86.5 133.226562 86.5 C 133.367188 86.5 133.507812 86.4375 133.617188 86.34375 C 133.632812 87.125 133.367188 87.734375 132.929688 88.203125 C 132.867188 88.265625 132.851562 88.28125 132.851562 88.3125 C 132.851562 88.390625 132.898438 88.421875 132.945312 88.421875 C 133.070312 88.421875 133.867188 87.640625 133.867188 86.484375 Z M 133.867188 86.484375 "
       id="path99" />
    <path
       style=" stroke:none;fill-rule:nonzero;fill:rgb(0%,0%,0%);fill-opacity:1;"
       d="M 142.75 82.46875 C 142.75 82.296875 142.640625 81.984375 142.25 81.984375 C 142.046875 81.984375 141.609375 82.046875 141.1875 82.453125 C 140.765625 82.125 140.359375 82.09375 140.140625 82.09375 C 139.203125 82.09375 138.515625 82.78125 138.515625 83.546875 C 138.515625 83.984375 138.734375 84.359375 138.984375 84.578125 C 138.859375 84.71875 138.671875 85.046875 138.671875 85.40625 C 138.671875 85.71875 138.8125 86.09375 139.125 86.296875 C 138.515625 86.453125 138.203125 86.890625 138.203125 87.28125 C 138.203125 88 139.1875 88.546875 140.40625 88.546875 C 141.578125 88.546875 142.609375 88.046875 142.609375 87.265625 C 142.609375 86.921875 142.484375 86.40625 141.96875 86.125 C 141.4375 85.859375 140.859375 85.859375 140.25 85.859375 C 140 85.859375 139.578125 85.859375 139.5 85.84375 C 139.1875 85.796875 138.984375 85.5 138.984375 85.171875 C 138.984375 85.140625 138.984375 84.90625 139.140625 84.703125 C 139.53125 84.984375 139.953125 85.015625 140.140625 85.015625 C 141.0625 85.015625 141.75 84.328125 141.75 83.5625 C 141.75 83.1875 141.59375 82.828125 141.34375 82.59375 C 141.703125 82.25 142.0625 82.203125 142.234375 82.203125 C 142.234375 82.203125 142.3125 82.203125 142.34375 82.21875 C 142.234375 82.25 142.171875 82.359375 142.171875 82.484375 C 142.171875 82.65625 142.3125 82.765625 142.46875 82.765625 C 142.5625 82.765625 142.75 82.703125 142.75 82.46875 Z M 141 83.546875 C 141 83.8125 141 84.140625 140.84375 84.390625 C 140.765625 84.5 140.53125 84.78125 140.140625 84.78125 C 139.265625 84.78125 139.265625 83.78125 139.265625 83.5625 C 139.265625 83.296875 139.28125 82.96875 139.421875 82.71875 C 139.5 82.609375 139.734375 82.328125 140.140625 82.328125 C 141 82.328125 141 83.3125 141 83.546875 Z M 142.09375 87.28125 C 142.09375 87.828125 141.390625 88.328125 140.421875 88.328125 C 139.40625 88.328125 138.71875 87.8125 138.71875 87.28125 C 138.71875 86.828125 139.09375 86.453125 139.53125 86.4375 L 140.125 86.4375 C 140.984375 86.4375 142.09375 86.4375 142.09375 87.28125 Z M 142.09375 87.28125 "
       id="path101" />
    <path
       style=" stroke:none;fill-rule:nonzero;fill:rgb(0%,0%,0%);fill-opacity:1;"
       d="M 147.375 84.765625 L 147.140625 84.765625 C 147.078125 85.0625 147.015625 85.5 146.90625 85.65625 C 146.84375 85.734375 146.1875 85.734375 145.96875 85.734375 L 144.171875 85.734375 L 145.234375 84.703125 C 146.78125 83.328125 147.375 82.796875 147.375 81.796875 C 147.375 80.65625 146.484375 79.859375 145.265625 79.859375 C 144.140625 79.859375 143.40625 80.78125 143.40625 81.671875 C 143.40625 82.21875 143.90625 82.21875 143.9375 82.21875 C 144.109375 82.21875 144.453125 82.109375 144.453125 81.6875 C 144.453125 81.4375 144.265625 81.171875 143.921875 81.171875 C 143.84375 81.171875 143.828125 81.171875 143.796875 81.1875 C 144.015625 80.53125 144.5625 80.171875 145.140625 80.171875 C 146.046875 80.171875 146.46875 80.984375 146.46875 81.796875 C 146.46875 82.59375 145.984375 83.375 145.421875 84 L 143.515625 86.125 C 143.40625 86.234375 143.40625 86.265625 143.40625 86.5 L 147.109375 86.5 Z M 147.375 84.765625 "
       id="path103" />
    <path
       style=" stroke:none;fill-rule:nonzero;fill:rgb(0%,0%,0%);fill-opacity:1;"
       d="M 149.917969 86.484375 C 149.917969 85.859375 149.667969 85.4375 149.277344 85.4375 C 148.917969 85.4375 148.746094 85.71875 148.746094 85.96875 C 148.746094 86.234375 148.917969 86.5 149.277344 86.5 C 149.417969 86.5 149.558594 86.4375 149.667969 86.34375 C 149.683594 87.125 149.417969 87.734375 148.980469 88.203125 C 148.917969 88.265625 148.902344 88.28125 148.902344 88.3125 C 148.902344 88.390625 148.949219 88.421875 148.996094 88.421875 C 149.121094 88.421875 149.917969 87.640625 149.917969 86.484375 Z M 149.917969 86.484375 "
       id="path105" />
    <path
       style=" stroke:none;fill-rule:nonzero;fill:rgb(0%,0%,0%);fill-opacity:1;"
       d="M 158.800781 82.46875 C 158.800781 82.296875 158.691406 81.984375 158.300781 81.984375 C 158.097656 81.984375 157.660156 82.046875 157.238281 82.453125 C 156.816406 82.125 156.410156 82.09375 156.191406 82.09375 C 155.253906 82.09375 154.566406 82.78125 154.566406 83.546875 C 154.566406 83.984375 154.785156 84.359375 155.035156 84.578125 C 154.910156 84.71875 154.722656 85.046875 154.722656 85.40625 C 154.722656 85.71875 154.863281 86.09375 155.175781 86.296875 C 154.566406 86.453125 154.253906 86.890625 154.253906 87.28125 C 154.253906 88 155.238281 88.546875 156.457031 88.546875 C 157.628906 88.546875 158.660156 88.046875 158.660156 87.265625 C 158.660156 86.921875 158.535156 86.40625 158.019531 86.125 C 157.488281 85.859375 156.910156 85.859375 156.300781 85.859375 C 156.050781 85.859375 155.628906 85.859375 155.550781 85.84375 C 155.238281 85.796875 155.035156 85.5 155.035156 85.171875 C 155.035156 85.140625 155.035156 84.90625 155.191406 84.703125 C 155.582031 84.984375 156.003906 85.015625 156.191406 85.015625 C 157.113281 85.015625 157.800781 84.328125 157.800781 83.5625 C 157.800781 83.1875 157.644531 82.828125 157.394531 82.59375 C 157.753906 82.25 158.113281 82.203125 158.285156 82.203125 C 158.285156 82.203125 158.363281 82.203125 158.394531 82.21875 C 158.285156 82.25 158.222656 82.359375 158.222656 82.484375 C 158.222656 82.65625 158.363281 82.765625 158.519531 82.765625 C 158.613281 82.765625 158.800781 82.703125 158.800781 82.46875 Z M 157.050781 83.546875 C 157.050781 83.8125 157.050781 84.140625 156.894531 84.390625 C 156.816406 84.5 156.582031 84.78125 156.191406 84.78125 C 155.316406 84.78125 155.316406 83.78125 155.316406 83.5625 C 155.316406 83.296875 155.332031 82.96875 155.472656 82.71875 C 155.550781 82.609375 155.785156 82.328125 156.191406 82.328125 C 157.050781 82.328125 157.050781 83.3125 157.050781 83.546875 Z M 158.144531 87.28125 C 158.144531 87.828125 157.441406 88.328125 156.472656 88.328125 C 155.457031 88.328125 154.769531 87.8125 154.769531 87.28125 C 154.769531 86.828125 155.144531 86.453125 155.582031 86.4375 L 156.175781 86.4375 C 157.035156 86.4375 158.144531 86.4375 158.144531 87.28125 Z M 158.144531 87.28125 "
       id="path107" />
    <path
       style=" stroke:none;fill-rule:nonzero;fill:rgb(0%,0%,0%);fill-opacity:1;"
       d="M 163.515625 84.796875 C 163.515625 83.984375 162.875 83.203125 161.84375 82.984375 C 162.65625 82.71875 163.234375 82.03125 163.234375 81.234375 C 163.234375 80.421875 162.359375 79.859375 161.40625 79.859375 C 160.40625 79.859375 159.640625 80.453125 159.640625 81.21875 C 159.640625 81.546875 159.859375 81.734375 160.15625 81.734375 C 160.453125 81.734375 160.65625 81.515625 160.65625 81.21875 C 160.65625 80.734375 160.1875 80.734375 160.046875 80.734375 C 160.34375 80.234375 161 80.109375 161.359375 80.109375 C 161.78125 80.109375 162.328125 80.328125 162.328125 81.21875 C 162.328125 81.34375 162.296875 81.921875 162.046875 82.359375 C 161.75 82.84375 161.40625 82.875 161.15625 82.875 C 161.078125 82.890625 160.84375 82.90625 160.765625 82.90625 C 160.6875 82.921875 160.625 82.9375 160.625 83.03125 C 160.625 83.140625 160.6875 83.140625 160.859375 83.140625 L 161.296875 83.140625 C 162.109375 83.140625 162.484375 83.8125 162.484375 84.796875 C 162.484375 86.15625 161.796875 86.4375 161.359375 86.4375 C 160.921875 86.4375 160.171875 86.265625 159.828125 85.6875 C 160.171875 85.734375 160.484375 85.515625 160.484375 85.140625 C 160.484375 84.78125 160.21875 84.578125 159.9375 84.578125 C 159.6875 84.578125 159.375 84.71875 159.375 85.15625 C 159.375 86.0625 160.296875 86.71875 161.390625 86.71875 C 162.609375 86.71875 163.515625 85.8125 163.515625 84.796875 Z M 163.515625 84.796875 "
       id="path109" />
    <path
       style=" stroke:none;fill-rule:nonzero;fill:rgb(0%,0%,0%);fill-opacity:1;"
       d="M 165.96875 86.484375 C 165.96875 85.859375 165.71875 85.4375 165.328125 85.4375 C 164.96875 85.4375 164.796875 85.71875 164.796875 85.96875 C 164.796875 86.234375 164.96875 86.5 165.328125 86.5 C 165.46875 86.5 165.609375 86.4375 165.71875 86.34375 C 165.734375 87.125 165.46875 87.734375 165.03125 88.203125 C 164.96875 88.265625 164.953125 88.28125 164.953125 88.3125 C 164.953125 88.390625 165 88.421875 165.046875 88.421875 C 165.171875 88.421875 165.96875 87.640625 165.96875 86.484375 Z M 165.96875 86.484375 "
       id="path111" />
    <path
       style=" stroke:none;fill-rule:nonzero;fill:rgb(0%,0%,0%);fill-opacity:1;"
       d="M 174.851562 82.46875 C 174.851562 82.296875 174.742188 81.984375 174.351562 81.984375 C 174.148438 81.984375 173.710938 82.046875 173.289062 82.453125 C 172.867188 82.125 172.460938 82.09375 172.242188 82.09375 C 171.304688 82.09375 170.617188 82.78125 170.617188 83.546875 C 170.617188 83.984375 170.835938 84.359375 171.085938 84.578125 C 170.960938 84.71875 170.773438 85.046875 170.773438 85.40625 C 170.773438 85.71875 170.914062 86.09375 171.226562 86.296875 C 170.617188 86.453125 170.304688 86.890625 170.304688 87.28125 C 170.304688 88 171.289062 88.546875 172.507812 88.546875 C 173.679688 88.546875 174.710938 88.046875 174.710938 87.265625 C 174.710938 86.921875 174.585938 86.40625 174.070312 86.125 C 173.539062 85.859375 172.960938 85.859375 172.351562 85.859375 C 172.101562 85.859375 171.679688 85.859375 171.601562 85.84375 C 171.289062 85.796875 171.085938 85.5 171.085938 85.171875 C 171.085938 85.140625 171.085938 84.90625 171.242188 84.703125 C 171.632812 84.984375 172.054688 85.015625 172.242188 85.015625 C 173.164062 85.015625 173.851562 84.328125 173.851562 83.5625 C 173.851562 83.1875 173.695312 82.828125 173.445312 82.59375 C 173.804688 82.25 174.164062 82.203125 174.335938 82.203125 C 174.335938 82.203125 174.414062 82.203125 174.445312 82.21875 C 174.335938 82.25 174.273438 82.359375 174.273438 82.484375 C 174.273438 82.65625 174.414062 82.765625 174.570312 82.765625 C 174.664062 82.765625 174.851562 82.703125 174.851562 82.46875 Z M 173.101562 83.546875 C 173.101562 83.8125 173.101562 84.140625 172.945312 84.390625 C 172.867188 84.5 172.632812 84.78125 172.242188 84.78125 C 171.367188 84.78125 171.367188 83.78125 171.367188 83.5625 C 171.367188 83.296875 171.382812 82.96875 171.523438 82.71875 C 171.601562 82.609375 171.835938 82.328125 172.242188 82.328125 C 173.101562 82.328125 173.101562 83.3125 173.101562 83.546875 Z M 174.195312 87.28125 C 174.195312 87.828125 173.492188 88.328125 172.523438 88.328125 C 171.507812 88.328125 170.820312 87.8125 170.820312 87.28125 C 170.820312 86.828125 171.195312 86.453125 171.632812 86.4375 L 172.226562 86.4375 C 173.085938 86.4375 174.195312 86.4375 174.195312 87.28125 Z M 174.195312 87.28125 "
       id="path113" />
    <path
       style=" stroke:none;fill-rule:nonzero;fill:rgb(0%,0%,0%);fill-opacity:1;"
       d="M 179.691406 84.859375 L 179.691406 84.546875 L 178.707031 84.546875 L 178.707031 80.015625 C 178.707031 79.8125 178.707031 79.75 178.535156 79.75 C 178.457031 79.75 178.425781 79.75 178.347656 79.875 L 175.285156 84.546875 L 175.285156 84.859375 L 177.941406 84.859375 L 177.941406 85.71875 C 177.941406 86.078125 177.910156 86.1875 177.175781 86.1875 L 176.972656 86.1875 L 176.972656 86.5 C 177.378906 86.46875 177.894531 86.46875 178.316406 86.46875 C 178.738281 86.46875 179.253906 86.46875 179.675781 86.5 L 179.675781 86.1875 L 179.457031 86.1875 C 178.722656 86.1875 178.707031 86.078125 178.707031 85.71875 L 178.707031 84.859375 Z M 177.988281 84.546875 L 175.566406 84.546875 L 177.988281 80.828125 Z M 177.988281 84.546875 "
       id="path115" />
  </g>
</svg>
